<svg id="_Icons_back" data-name="_Icons / back" xmlns="http://www.w3.org/2000/svg" width="28" height="28" viewBox="0 0 28 28">
  <g id="Group">
    <path id="Path" d="M0,0H28V28H0Z" fill="none"/>
    <path id="Path-2" data-name="Path" d="M7,2.333a2.333,2.333,0,0,1,4.667,0,8.167,8.167,0,0,1,4.667,7v3.5a4.667,4.667,0,0,0,2.333,3.5H0a4.667,4.667,0,0,0,2.333-3.5v-3.5A8.167,8.167,0,0,1,7,2.333" transform="translate(4.667 3.5)" fill="none" stroke="#5e5d8f" stroke-linecap="round" stroke-linejoin="round" stroke-miterlimit="10" stroke-width="1.75"/>
    <path id="Path-3" data-name="Path" d="M0,0V1.167a3.5,3.5,0,0,0,7,0V0" transform="translate(10.5 19.833)" fill="none" stroke="#5e5d8f" stroke-linecap="round" stroke-linejoin="round" stroke-miterlimit="10" stroke-width="1.75"/>
  </g>
</svg>
