<svg xmlns="http://www.w3.org/2000/svg" width="19.813" height="17.778" viewBox="0 0 19.813 17.778">
  <g id="Filter" transform="translate(-0.092)">
    <g id="filter-2" data-name="filter">
      <g id="Group">
        <path id="Shape" d="M2.311,17.037V14.289a3.052,3.052,0,0,1-.518-5.741,3.525,3.525,0,0,1,.518-.178V.741a.741.741,0,1,1,1.481,0V8.375a3.049,3.049,0,0,1,0,5.918v2.744a.741.741,0,0,1-1.481,0Z" transform="translate(0.092)" fill="#222"/>
        <path id="Shape-2" data-name="Shape" d="M2.311,17.037V14.289a3.052,3.052,0,0,1-.518-5.741,3.525,3.525,0,0,1,.518-.178V.741a.741.741,0,1,1,1.481,0V8.375a3.049,3.049,0,0,1,0,5.918v2.744a.741.741,0,0,1-1.481,0Z" transform="translate(13.796)" fill="#222"/>
        <path id="Shape-3" data-name="Shape" d="M2.31,17.037v-7.5c-.111-.03-.226-.063-.337-.1A3.057,3.057,0,0,1,2.31,3.611V.741a.741.741,0,0,1,1.481,0V3.6c.115.03.226.063.337.1A3.052,3.052,0,0,1,4.31,9.356a2.915,2.915,0,0,1-.518.178v7.5a.741.741,0,0,1-1.481,0Z" transform="translate(6.945)" fill="#222"/>
      </g>
    </g>
  </g>
</svg>
